<?xml version="1.0" standalone="no"?><!DOCTYPE svg PUBLIC "-//W3C//DTD SVG 1.1//EN"
        "http://www.w3.org/Graphics/SVG/1.1/DTD/svg11.dtd">
<svg t="1602299976655" class="icon" viewBox="0 0 1024 1024" version="1.1" xmlns="http://www.w3.org/2000/svg" p-id="5486"
     width="20" height="20" xmlns:xlink="http://www.w3.org/1999/xlink">
    <defs>
        <style type="text/css"></style>
    </defs>
    <path d="M798.72 926.72c-15.36 0-35.84-5.12-56.32-20.48-5.12 0-61.44-40.96-102.4-61.44-40.96 10.24-81.92 15.36-128 15.36-240.64 0-424.96-158.72-424.96-363.52 0-209.92 189.44-384 424.96-384s424.96 168.96 424.96 384c0 81.92-30.72 163.84-87.04 225.28L849.92 870.4c0 25.6-10.24 46.08-30.72 56.32C814.08 926.72 808.96 926.72 798.72 926.72zM650.24 788.48l10.24 5.12c40.96 25.6 107.52 71.68 112.64 71.68 20.48 15.36 30.72 10.24 30.72 10.24 0 0 0-5.12 0-10.24l0-168.96 5.12-5.12c51.2-56.32 81.92-122.88 81.92-199.68 0-184.32-168.96-332.8-373.76-332.8-204.8 0-373.76 148.48-373.76 332.8 0 179.2 158.72 312.32 373.76 312.32 40.96 0 87.04-5.12 122.88-15.36L650.24 788.48z"
          p-id="5487" fill="#AFB1B3"></path>
</svg>