<?xml version="1.0" standalone="no"?><!DOCTYPE svg PUBLIC "-//W3C//DTD SVG 1.1//EN"
        "http://www.w3.org/Graphics/SVG/1.1/DTD/svg11.dtd">
<svg t="1600159770691" class="icon" viewBox="0 0 1024 1024" version="1.1" xmlns="http://www.w3.org/2000/svg" p-id="4754"
     xmlns:xlink="http://www.w3.org/1999/xlink" width="130" height="100">
    <defs>
        <style type="text/css"></style>
    </defs>
    <path d="M922.624 10.752H105.984c-51.712 0-93.184 41.984-93.184 93.184v816.64c0 51.712 41.984 93.184 93.184 93.184h177.664v-64H105.984c-16.384 0-29.696-13.312-29.696-29.696V103.936c0-16.384 13.312-29.696 29.696-29.696h816.64c16.384 0 29.696 13.312 29.696 29.696v583.168c-20.48-18.944-43.008-35.84-67.072-50.176-102.912-65.024-226.816-86.016-350.208-58.88 0 0-25.6 5.632-31.744 22.016-6.144 14.848 5.12 33.792 5.12 33.792 6.656 11.776 17.92 25.6 31.232 41.472 2.56 3.072 5.632 6.656 8.704 10.752-16.896-3.072-39.936-10.24-68.096-23.552-23.552-14.848-31.232-23.04-33.792-27.136 0 0-7.68-10.24-14.848-15.872-10.752-8.704-30.208 0.512-30.208 0.512-62.976 26.112-108.032 52.224-118.784 58.368l-4.096 2.048c-25.088 12.8-39.424 17.92-47.616 19.968 0-24.576 17.92-54.784 32.768-79.872 2.56-4.096 4.608-7.68 6.656-11.776l6.656-11.264-3.072-12.288c-9.728-40.448 13.824-98.816 41.472-130.048 25.088-24.576 120.832-92.672 243.712-98.304l19.968-0.512 14.848-18.944c18.944-24.064 77.312-51.712 119.808-66.56-7.168 11.264-14.336 22.528-19.456 33.28-16.896 35.328-6.656 54.784 5.632 65.024 3.584 3.072 9.216 6.656 16.384 8.192 45.568 16.896 87.04 39.424 124.416 67.584 21.504-28.672 13.824-70.144-17.408-88.064-21.504-12.288-43.52-23.04-66.56-32.256 5.632-10.24 13.824-22.016 18.944-30.208 12.8-19.456 23.552-35.84 27.648-50.176l2.56-8.704-2.56-8.704c-4.096-14.336-16.384-25.088-32.768-28.16-45.568-8.704-177.664 44.032-222.72 95.232C421.888 302.08 312.832 367.616 269.824 410.624l-1.024 1.024c-36.352 40.448-67.584 113.152-59.392 175.104-20.992 35.84-50.688 84.992-39.936 135.68v0.512c4.096 16.896 14.336 29.696 29.184 36.352 31.744 14.848 72.704-3.584 109.056-22.016l4.608-2.56 2.048-1.024c7.168-4.096 41.984-24.576 92.672-46.592 9.728 9.216 22.528 18.944 40.448 30.208l3.072 1.536c64.512 31.232 148.48 52.224 175.104 7.68l1.024-2.048c13.824-28.16-9.216-55.808-38.912-90.624 93.184-11.776 185.344 8.192 262.656 57.344l0.512 0.512c37.376 23.04 70.656 52.224 98.816 87.04l1.536-1.024V921.6c0 16.384-13.312 29.696-29.696 29.696h-188.928v64H921.6c51.712 0 93.184-41.984 93.184-93.184V103.936c1.024-51.2-40.448-93.184-92.16-93.184z"
          p-id="4755" data-spm-anchor-id="a313x.7781069.0.i7" fill="#019934" class=""></path>
    <path d="M392.704 950.272h66.56v64h-66.56zM544.768 950.272h66.56v64h-66.56z" p-id="4756" fill="#F29111"
          data-spm-anchor-id="a313x.7781069.0.i9" class="selected"></path>
</svg>