<?xml version="1.0" standalone="no"?><!DOCTYPE svg PUBLIC "-//W3C//DTD SVG 1.1//EN" "http://www.w3.org/Graphics/SVG/1.1/DTD/svg11.dtd"><svg t="1603939882988" class="icon" viewBox="0 0 1024 1024" version="1.1" xmlns="http://www.w3.org/2000/svg" p-id="5553" xmlns:xlink="http://www.w3.org/1999/xlink" width="16" height="16"><defs><style type="text/css"></style></defs><path d="M700.16 625.92a88.32 88.32 0 1 0 88.32 88.32 88.32 88.32 0 0 0-88.32-88.32z m0 130.986667a42.666667 42.666667 0 1 1 42.666667-42.666667 42.666667 42.666667 0 0 1-42.666667 42.666667z m233.386667-88.746667a31.146667 31.146667 0 0 0-28.586667-29.013333h-2.133333A49.92 49.92 0 0 1 853.333333 589.226667a55.466667 55.466667 0 0 1 4.266667-18.773334 36.693333 36.693333 0 0 0-13.653333-42.666666l-58.453334-32a34.133333 34.133333 0 0 0-14.506666-2.986667 42.666667 42.666667 0 0 0-28.16 11.093333 74.666667 74.666667 0 0 1-39.68 23.04 75.946667 75.946667 0 0 1-40.533334-23.466666 39.253333 39.253333 0 0 0-28.16-11.52 30.72 30.72 0 0 0-14.08 2.986666l-59.306666 32.426667a36.693333 36.693333 0 0 0-12.373334 42.666667 53.76 53.76 0 0 1 4.693334 18.773333 49.92 49.92 0 0 1-53.333334 51.2h-2.56c-14.08 0-25.173333 11.52-28.586666 29.013333a314.88 314.88 0 0 0-4.693334 46.08 315.733333 315.733333 0 0 0 5.12 45.653334 31.573333 31.573333 0 0 0 29.013334 29.013333h2.133333a49.92 49.92 0 0 1 49.92 49.92 72.533333 72.533333 0 0 1-4.266667 18.773333 37.12 37.12 0 0 0 13.226667 44.8l57.6 31.573334a32.853333 32.853333 0 0 0 14.506667 2.986666 37.973333 37.973333 0 0 0 28.16-11.946666 78.506667 78.506667 0 0 1 42.666666-24.32 76.373333 76.373333 0 0 1 42.666667 24.746666 40.106667 40.106667 0 0 0 23.04 12.373334 37.546667 37.546667 0 0 0 15.786667-3.413334l58.026666-32a35.413333 35.413333 0 0 0 12.373334-42.666666 57.173333 57.173333 0 0 1-4.266667-18.773334 49.92 49.92 0 0 1 49.92-49.92h2.133333a31.146667 31.146667 0 0 0 28.586667-29.013333 239.786667 239.786667 0 0 0 8.106667-48.64 248.32 248.32 0 0 0-5.12-46.08z m-42.666667 76.8a95.146667 95.146667 0 0 0-83.2 94.293333 101.546667 101.546667 0 0 0 5.12 29.013334l-42.666667 23.04c-3.84-3.413333-9.813333-8.96-17.066666-14.506667a93.013333 93.013333 0 0 0-53.333334-20.906667 90.026667 90.026667 0 0 0-52.906666 20.48 180.906667 180.906667 0 0 0-17.066667 14.506667l-40.106667-22.613333a85.333333 85.333333 0 0 0 5.12-28.586667A95.146667 95.146667 0 0 0 512 744.96a208.213333 208.213333 0 0 1-2.986667-30.72A208.213333 208.213333 0 0 1 512 682.666667a95.573333 95.573333 0 0 0 85.333333-93.44 85.333333 85.333333 0 0 0-5.12-28.586667l42.666667-23.893333a142.08 142.08 0 0 0 17.066667 14.08 91.306667 91.306667 0 0 0 52.053333 19.626666 90.026667 90.026667 0 0 0 51.2-19.2 195.84 195.84 0 0 0 17.066667-13.653333l42.666666 23.04a98.133333 98.133333 0 0 0-5.12 28.586667A95.573333 95.573333 0 0 0 890.453333 682.666667a213.333333 213.333333 0 0 1 2.56 30.293333 217.6 217.6 0 0 1-2.56 32z m-501.333333-128zM439.893333 85.333333C244.053333 85.333333 85.333333 170.666667 85.333333 272.213333v506.453334C85.333333 866.986667 244.053333 938.666667 439.893333 938.666667v-53.333334c-167.68 0-303.786667-47.786667-303.786666-106.666666v-77.653334a489.813333 489.813333 0 0 0 253.44 75.946667V725.333333c-144.213333-8.106667-253.44-52.053333-253.44-104.96v-79.36a489.386667 489.386667 0 0 0 253.013333 75.946667v-52.906667C245.333333 554.666667 136.106667 512 136.106667 458.666667V368.213333c61.866667 54.186667 174.933333 90.453333 303.786666 90.453334a480 480 0 0 0 304.213334-90.453334v72.106667h50.346666V272.213333C794.453333 170.666667 635.733333 85.333333 439.893333 85.333333z m0 320c-167.68 0-303.786667-59.733333-303.786666-133.12s136.106667-133.546667 303.786666-133.546666 304.213333 59.733333 304.213334 133.546666-136.106667 133.12-304.213334 133.12z" p-id="5554" fill="#AFB1B3"></path></svg>