<?xml version="1.0" standalone="no"?><!DOCTYPE svg PUBLIC "-//W3C//DTD SVG 1.1//EN" "http://www.w3.org/Graphics/SVG/1.1/DTD/svg11.dtd"><svg t="1603939304908" class="icon" viewBox="0 0 1024 1024" version="1.1" xmlns="http://www.w3.org/2000/svg" p-id="2309" width="16" height="16" xmlns:xlink="http://www.w3.org/1999/xlink"><defs><style type="text/css"></style></defs><path d="M512 919.552c-224.768 0-407.552-182.784-407.552-407.552 0-8.704 0.512-17.408 1.024-26.112l71.68 4.608c-0.512 7.168-0.512 14.336-0.512 21.504 0 185.344 150.528 335.872 335.872 335.872 86.528 0 168.448-32.768 230.912-92.16l49.152 52.224C716.288 880.128 616.96 919.552 512 919.552zM919.552 512h-71.68c0-11.776-0.512-23.552-2.048-35.328-17.92-171.52-161.28-300.544-334.336-300.544-67.584 0-132.096 19.968-187.904 57.344L284.16 174.08c67.072-45.568 145.92-69.632 227.84-69.632 209.408 0 384 156.672 405.504 365.056 1.536 13.824 2.048 28.16 2.048 42.496z" fill="#AFB1B3" p-id="2310"></path><path d="M140.288 290.816L28.16 491.52c-3.072 5.12 1.024 11.776 6.656 11.776H258.56c6.144 0 9.728-6.144 6.656-11.776L153.6 290.816c-3.072-5.632-10.752-5.632-13.312 0zM870.4 675.84L758.272 475.136c-3.072-5.12 1.024-11.776 6.656-11.776h223.744c6.144 0 9.728 6.144 6.656 11.776L883.712 675.84c-2.56 5.12-10.24 5.12-13.312 0zM270.336 202.24a35.84 35.84 0 1 0 71.68 0 35.84 35.84 0 1 0-71.68 0zM728.576 784.896a35.84 35.84 0 1 0 71.68 0 35.84 35.84 0 1 0-71.68 0z" fill="#AFB1B3" p-id="2311"></path></svg>