<?xml version="1.0" standalone="no"?><!DOCTYPE svg PUBLIC "-//W3C//DTD SVG 1.1//EN"
        "http://www.w3.org/Graphics/SVG/1.1/DTD/svg11.dtd">
<svg t="1599317689141" class="icon" viewBox="0 0 1024 1024" version="1.1" xmlns="http://www.w3.org/2000/svg"
     p-id="18778" xmlns:xlink="http://www.w3.org/1999/xlink" width="25" height="25">
    <defs>
        <style type="text/css"></style>
    </defs>
    <path d="M960 783.985778a128 128 0 0 1-128 128H192a128 128 0 0 1-128-128V240.071111a128 128 0 0 1 128-128h640a128 128 0 0 1 128 128v543.971556zM317.952 674.986667H135.964444v108.999111c0 30.606222 24.632889 55.523556 55.125334 55.978666h126.862222v-164.977777z m570.026667 0H389.973333v164.977777h442.026667a56.035556 56.035556 0 0 0 55.978667-55.011555v-109.966222zM317.952 420.977778H135.964444v181.987555h181.987556v-182.044444z m570.026667 0H389.973333v181.987555h498.005334v-182.044444zM317.952 183.978667H192a56.035556 56.035556 0 0 0-55.978667 55.068444L135.964444 349.013333h181.987556V183.978667z m514.958222 0H389.973333v164.977777h498.005334V240.071111a55.978667 55.978667 0 0 0-55.068445-55.978667z"
          p-id="18779" fill="#AFB1B3"></path>
</svg>