<?xml version="1.0" standalone="no"?><!DOCTYPE svg PUBLIC "-//W3C//DTD SVG 1.1//EN"
        "http://www.w3.org/Graphics/SVG/1.1/DTD/svg11.dtd">
<svg t="1599313444986" class="icon" viewBox="0 0 1024 1024" version="1.1" xmlns="http://www.w3.org/2000/svg" p-id="2448"
     xmlns:xlink="http://www.w3.org/1999/xlink" width="20" height="20">
    <defs>
        <style type="text/css"></style>
    </defs>
    <path d="M979.2 377.6h-704c-38.4 0-60.8 19.2-76.8 57.6-51.2 137.6-102.4 275.2-156.8 412.8-19.2 48-6.4 73.6 38.4 73.6h697.6c38.4 0 64-19.2 80-60.8 51.2-137.6 105.6-275.2 156.8-409.6 19.2-48 6.4-73.6-35.2-73.6z"
          fill="#AFB1B3" p-id="2449"></path>
    <path d="M275.2 339.2c166.4 3.2 336 0 502.4 0h35.2c16-105.6-6.4-128-80-124.8-124.8 3.2-252.8 0-380.8 0-22.4 0-32-3.2-32-35.2 0-51.2-19.2-70.4-60.8-70.4H60.8C16 108.8 0 128 0 185.6v633.6h6.4c6.4-12.8 9.6-25.6 16-35.2 44.8-118.4 92.8-236.8 137.6-355.2 22.4-60.8 57.6-89.6 115.2-89.6z"
          fill="#AFB1B3" p-id="2450"></path>
</svg>