<?xml version="1.0" standalone="no"?><!DOCTYPE svg PUBLIC "-//W3C//DTD SVG 1.1//EN"
        "http://www.w3.org/Graphics/SVG/1.1/DTD/svg11.dtd">
<svg t="1599370938428" class="icon" viewBox="0 0 1029 1024" version="1.1" xmlns="http://www.w3.org/2000/svg" p-id="8416"
     xmlns:xlink="http://www.w3.org/1999/xlink" width="20" height="20">
    <defs>
        <style type="text/css"></style>
    </defs>
    <path d="M32.2592 294.4l409.6 211.2c19.2 12.8 44.8 12.8 70.4 12.8s51.2-6.4 70.4-12.8l409.6-211.2c38.4-19.2 38.4-51.2 0-70.4l-409.6-211.2c-19.2-6.4-44.8-12.8-70.4-12.8s-51.2 6.4-70.4 12.8l-409.6 211.2c-38.4 19.2-38.4 51.2 0 70.4z m441.6-204.8c12.8-6.4 25.6-6.4 38.4-6.4s32 6.4 38.4 6.4l339.2 172.8-339.2 172.8c-6.4 6.4-19.2 6.4-38.4 6.4-12.8 0-32-6.4-38.4-6.4l-339.2-172.8 339.2-172.8z"
          p-id="8417" fill="#3E86A0"></path>
    <path d="M19.4592 550.4l403.2 204.8c25.6 12.8 57.6 19.2 89.6 19.2s64-6.4 89.6-19.2l403.2-204.8c12.8-6.4 25.6-32 12.8-51.2s-32-32-51.2-19.2l-403.2 204.8c-32 12.8-83.2 12.8-108.8 0l-403.2-204.8c-12.8-12.8-25.6-12.8-38.4 0-6.4 12.8-12.8 25.6-12.8 38.4 0 19.2 6.4 25.6 19.2 32z"
          p-id="8418" fill="#3E86A0"></path>
    <path d="M1024.2592 748.8c-12.8-19.2-32-32-51.2-19.2l-403.2 204.8c-32 12.8-83.2 12.8-108.8 0l-403.2-204.8c-12.8-6.4-38.4 6.4-51.2 19.2-12.8 12.8-6.4 38.4 12.8 51.2l403.2 204.8c25.6 12.8 57.6 19.2 89.6 19.2s64-6.4 96-19.2l403.2-204.8c12.8-6.4 25.6-32 12.8-51.2z"
          p-id="8419" fill="#3E86A0"></path>
</svg>