<?xml version="1.0" standalone="no"?><!DOCTYPE svg PUBLIC "-//W3C//DTD SVG 1.1//EN"
        "http://www.w3.org/Graphics/SVG/1.1/DTD/svg11.dtd">
<svg t="1600158671245" class="icon" viewBox="0 0 1024 1024" version="1.1" xmlns="http://www.w3.org/2000/svg" p-id="4195"
     xmlns:xlink="http://www.w3.org/1999/xlink" width="25" height="25">
    <defs>
        <style type="text/css"></style>
    </defs>
    <path d="M743.8976 773.5488l57.4464-57.4464c6.72-6.7904 17.792-6.7904 24.5824 0 6.8544 6.8544 6.8544 17.8624 0 24.6528l-57.4528 57.4464 57.4528 57.4464c6.8544 6.7904 6.8544 17.8624 0 24.6528-6.7904 6.7968-17.8624 6.7968-24.5824 0l-57.4464-57.4464-57.4528 57.4464c-6.8544 6.7968-17.8624 6.7968-24.7168 0-3.4304-3.3536-5.0752-7.7888-5.0752-12.288 0-4.4288 1.6448-8.9344 5.0752-12.3648l57.4464-57.4464-57.4464-57.4464c-3.4304-3.4304-5.0752-7.8656-5.0752-12.3648 0-4.4288 1.6448-8.864 5.0752-12.288 6.7904-6.7904 17.8624-6.7904 24.7168 0L743.8976 773.5488zM638.2016 674.9312l112.1728 0c11.7184 0 21.2928-9.568 21.2928-21.3632L771.6672 344.192c0-11.7888-9.5744-21.2928-21.2928-21.2928L558.176 322.8992c-11.8656 0-21.2928-9.5744-21.2928-21.3632L536.8832 149.9904c0-11.7888-9.568-21.3632-21.4336-21.3632L269.1008 128.6272c-42.0096 0-76.1664 34.08-76.1664 76.1664L192.9344 819.84c0 42.08 34.1504 76.16 76.1664 76.16l326.3744 0c11.8592 0 21.2928-9.5744 21.2928-21.3632l0-178.3424C616.768 684.5056 626.4128 674.9312 638.2016 674.9312M588.928 128 588.928 292.3328 753.3312 292.3328Z"
          p-id="4196" fill="#beC4C0"></path>
</svg>