<?xml version="1.0" standalone="no"?><!DOCTYPE svg PUBLIC "-//W3C//DTD SVG 1.1//EN"
        "http://www.w3.org/Graphics/SVG/1.1/DTD/svg11.dtd">
<svg t="1599292952065" class="icon" viewBox="0 0 1024 1024" version="1.1" xmlns="http://www.w3.org/2000/svg" p-id="7387"
     xmlns:xlink="http://www.w3.org/1999/xlink" width="25" height="25">
    <defs>
        <style type="text/css"></style>
    </defs>
    <path d="M914.88 608.8h-66.288V470.704c0-11.048-11.048-22.088-22.096-22.088H533.744V360.232h121.52c16.568 0 27.616-11.048 27.616-27.616V150.336c0-16.568-11.048-27.624-27.616-27.624H379.08c-16.568 0-27.616 11.048-27.616 27.624v182.28c0 16.568 11.048 27.616 27.616 27.616h110.48v88.384H207.84c-11.048 0-22.096 11.04-22.096 22.088V614.32h-77.336c-16.568 0-27.616 11.048-27.616 27.616v193.336c0 16.56 11.048 27.616 27.616 27.616h193.336c16.568 0 27.616-11.056 27.616-27.616V641.936c0-16.568-11.048-27.616-27.616-27.616h-71.808V487.272h265.136V608.8h-77.336c-16.568 0-27.624 11.048-27.624 27.624v193.328c0 16.56 11.048 27.616 27.624 27.616h193.336c16.568 0 27.616-11.056 27.616-27.616V636.424c0-16.576-11.048-27.624-27.616-27.624h-77.336V487.28h270.664V608.8H716.024c-16.568 0-27.616 11.048-27.616 27.624v193.328c0 16.56 11.048 27.616 27.616 27.616h193.328c16.576 0 27.616-11.056 27.616-27.616V636.424c5.536-11.056-11.04-27.624-22.088-27.624zM401.176 172.424h231.992v143.616H401.176V172.424z m-121.52 640.744H130.512V658.504h149.144v154.664z m309.328 0H439.84V658.504h149.144v154.664z m303.808 0H743.64V658.504h149.152v154.664z"
          p-id="7388" fill="#318caf"></path>
</svg>