<?xml version="1.0" standalone="no"?><!DOCTYPE svg PUBLIC "-//W3C//DTD SVG 1.1//EN"
        "http://www.w3.org/Graphics/SVG/1.1/DTD/svg11.dtd">
<svg t="1599572044531" class="icon" viewBox="0 0 1024 1024" version="1.1" xmlns="http://www.w3.org/2000/svg"
     p-id="22680" xmlns:xlink="http://www.w3.org/1999/xlink" width="20" height="20">
    <defs>
        <style type="text/css"></style>
    </defs>
    <path d="M608 960a32.64 32.64 0 0 1-32-22.4L352 204.8 128 937.6a32 32 0 1 1-64-19.2l256-832a33.28 33.28 0 0 1 64 0l256 832a32.64 32.64 0 0 1-21.12 40.32z"
          fill="#AFB1B3" p-id="22681"></path>
    <path d="M487.68 608H204.16a32 32 0 1 1 0-64h283.52a32 32 0 0 1 0 64zM928 960a32.64 32.64 0 0 1-30.72-22.4l-97.28-320-97.28 320a32 32 0 1 1-64-19.2l128-416a33.28 33.28 0 0 1 64 0l128 416a32.64 32.64 0 0 1-21.12 40.32z"
          fill="#AFB1B3" p-id="22682"></path>
    <path d="M867.84 784h-141.44a32 32 0 0 1 0-64h141.44a32 32 0 1 1 0 64z" fill="#AFB1B3" p-id="22683"></path>
</svg>