<?xml version="1.0" standalone="no"?><!DOCTYPE svg PUBLIC "-//W3C//DTD SVG 1.1//EN"
        "http://www.w3.org/Graphics/SVG/1.1/DTD/svg11.dtd">
<svg t="1599570304529" class="icon" viewBox="0 0 1024 1024" version="1.1" xmlns="http://www.w3.org/2000/svg"
     p-id="10079" xmlns:xlink="http://www.w3.org/1999/xlink" width="23" height="25">
    <defs>
        <style type="text/css"></style>
    </defs>
    <path d="M208 704.1h-52.7v-357c-12.7 12.9-29.3 25.7-50 38.6-20.6 12.9-39.1 22.5-55.5 28.9v-54.2c29.5-14.7 55.3-32.6 77.3-53.5 22.1-21 37.7-41.3 46.9-61h34v458.2z m412.2-53.8v53.8H336.3c-0.4-13.5 1.7-26.5 6.2-38.9 7.2-20.5 18.8-40.8 34.7-60.7 15.9-19.9 38.9-42.9 69-69.1 46.7-40.7 78.2-72.9 94.6-96.6 16.4-23.8 24.6-46.2 24.6-67.4 0-22.2-7.5-40.9-22.4-56.2-14.9-15.2-34.4-22.9-58.4-22.9-25.4 0-45.7 8.1-60.9 24.3-15.2 16.2-23 38.6-23.1 67.2l-54.2-5.9c3.7-42.9 17.7-75.7 41.9-98.2s56.7-33.8 97.6-33.8c41.2 0 73.8 12.1 97.9 36.4 24 24.3 36 54.4 36 90.3 0 18.3-3.5 36.2-10.5 53.8-7 17.6-18.7 36.2-35 55.7s-43.4 46.3-81.3 80.3c-31.6 28.2-52 47.4-60.9 57.4-9 10.1-16.4 20.2-22.3 30.3h210.4z m56.8-66.6l52.7-7.5c6.1 31.7 16.4 54.6 30.9 68.6 14.5 14 32.3 21 53.2 21 24.8 0 45.7-9.1 62.8-27.4 17.1-18.3 25.6-40.9 25.6-67.8 0-25.7-7.9-46.9-23.7-63.6-15.8-16.7-35.9-25.1-60.4-25.1-10 0-22.4 2.1-37.2 6.2l5.9-49.2c3.5 0.4 6.3 0.6 8.5 0.6 22.5 0 42.7-6.2 60.6-18.7 18-12.4 27-31.6 27-57.6 0-20.5-6.5-37.6-19.6-51-13.1-13.5-30-20.2-50.7-20.2-20.5 0-37.6 6.8-51.3 20.5-13.7 13.7-22.5 34.2-26.4 61.6l-52.7-10c6.4-37.6 21.1-66.6 43.9-87.3 22.9-20.6 51.3-31 85.3-31 23.4 0 45 5.3 64.7 16 19.7 10.7 34.8 25.3 45.3 43.7 10.4 18.5 15.7 38.1 15.7 58.8 0 19.7-5 37.7-14.9 53.8-10 16.2-24.7 29.1-44.2 38.6 25.4 6.2 45.1 19.1 59.2 38.7 14.1 19.6 21.1 44.1 21.1 73.6 0 39.8-13.7 73.6-41 101.3-27.3 27.7-61.9 41.5-103.7 41.5-37.7 0-69-11.9-93.9-35.8-24.9-23.4-39.1-54.4-42.7-92.3z"
          fill="#AFB1B3" p-id="10080"></path>
</svg>