<?xml version="1.0" standalone="no"?><!DOCTYPE svg PUBLIC "-//W3C//DTD SVG 1.1//EN"
        "http://www.w3.org/Graphics/SVG/1.1/DTD/svg11.dtd">
<svg t="1603522813194" class="icon" viewBox="0 0 1024 1024" version="1.1" xmlns="http://www.w3.org/2000/svg" p-id="3388"
     xmlns:xlink="http://www.w3.org/1999/xlink" width="25" height="25">
    <defs>
        <style type="text/css"></style>
    </defs>
    <path d="M517.4 486.4c39.3-80.9 17.5-181.1-56.9-237.9-84.9-64.7-206.2-48.4-270.9 36.5s-48.4 206.3 36.5 271c74.4 56.7 176.8 51.2 244.4-8.1l341.2 260.2c17.2 13.1 41.1 9.9 54.2-7.3s9.9-41.1-7.3-54.2l-30.7-23.4 37.5-49.2c13.1-17.2 9.9-41.1-7.3-54.2-17.2-13.1-41.1-9.9-54.2 7.3l-14.1 18.4-36.8-28 14-18.5c13.1-17.2 9.9-41.1-7.3-54.2-17.2-13.1-41.1-9.9-54.2 7.3L668 601.3 517.4 486.4zM413.6 310.1c51 38.9 60.8 111.5 21.9 162.6S324 533.4 273 494.5 212.1 383 251.1 332c38.9-51.1 111.5-60.8 162.5-21.9z"
          p-id="3389" fill="#bb985b"></path>
</svg>