<?xml version="1.0" standalone="no"?><!DOCTYPE svg PUBLIC "-//W3C//DTD SVG 1.1//EN"
        "http://www.w3.org/Graphics/SVG/1.1/DTD/svg11.dtd">
<svg t="1599722235205" class="icon" viewBox="0 0 1024 1024" version="1.1" xmlns="http://www.w3.org/2000/svg" p-id="6980"
     xmlns:xlink="http://www.w3.org/1999/xlink" width="32" height="32">
    <defs>
        <style type="text/css"></style>
    </defs>
    <path d="M514 63.2c-242.6 0-439.3 200.6-439.3 448.1S271.4 959.4 514 959.4s439.3-200.6 439.3-448.1S756.6 63.2 514 63.2z m50.8 704.3H450V659.6h114.8v107.9zM611.7 512c-43.8 29.7-63.3 58.6-58.6 86.7v18.8h-93.8v-25.8c-1.6-48.4 18.8-87.5 60.9-117.2 39-31.2 57.8-59.4 56.3-84.4-3.1-32.8-21.1-50.8-53.9-53.9-43.8 0-71.1 28.9-82 86.7l-105.5-23.4c18.8-106.2 86.7-157.8 203.9-154.7 96.9 4.7 149.2 48.4 157 131.3 3.2 50-24.9 95.3-84.3 135.9z"
          p-id="6981" data-spm-anchor-id="a313x.7781069.0.i13" class="" fill="#9AC899"></path>
</svg>