<?xml version="1.0" standalone="no"?><!DOCTYPE svg PUBLIC "-//W3C//DTD SVG 1.1//EN"
        "http://www.w3.org/Graphics/SVG/1.1/DTD/svg11.dtd">
<svg t="1602211542955" class="icon" viewBox="0 0 1024 1024" version="1.1" xmlns="http://www.w3.org/2000/svg" p-id="8497"
     xmlns:xlink="http://www.w3.org/1999/xlink" width="20" height="20">
    <defs>
        <style type="text/css"></style>
    </defs>
    <path d="M511.715556 689.588148c-49.303704 0-89.41037-40.106667-89.410371-89.315555 0-49.208889 40.106667-89.315556 89.410371-89.315556s89.41037 40.106667 89.41037 89.315556c0 49.303704-40.106667 89.315556-89.41037 89.315555z m0-135.869629c-25.78963 0-46.743704 20.954074-46.743704 46.648888s20.954074 46.648889 46.743704 46.648889 46.743704-20.954074 46.743703-46.648889c0-25.78963-20.954074-46.648889-46.743703-46.648888zM226.038519 815.217778c-54.234074 0-98.322963-44.088889-98.322963-98.228148 0-54.139259 44.088889-98.228148 98.322963-98.228149s98.322963 44.088889 98.322962 98.228149c0 54.139259-44.088889 98.228148-98.322962 98.228148z m0-153.884445c-30.72 0-55.656296 24.936296-55.656297 55.561482s24.936296 55.561481 55.656297 55.561481 55.656296-24.936296 55.656296-55.561481-25.031111-55.561481-55.656296-55.561482zM797.297778 815.217778c-54.234074 0-98.322963-44.088889-98.322963-98.228148 0-54.139259 44.088889-98.228148 98.322963-98.228149s98.322963 44.088889 98.322963 98.228149c0 54.139259-44.088889 98.228148-98.322963 98.228148z m0-153.884445c-30.72 0-55.656296 24.936296-55.656297 55.561482s24.936296 55.561481 55.656297 55.561481 55.656296-24.936296 55.656296-55.561481-24.936296-55.561481-55.656296-55.561482zM226.038519 404.954074c-54.234074 0-98.322963-44.088889-98.322963-98.228148s44.088889-98.228148 98.322963-98.228148 98.322963 44.088889 98.322962 98.228148-44.088889 98.228148-98.322962 98.228148z m0-153.884444c-30.72 0-55.656296 24.936296-55.656297 55.561481S195.318519 362.192593 226.038519 362.192593s55.656296-24.936296 55.656296-55.561482-25.031111-55.561481-55.656296-55.561481zM797.297778 404.954074c-54.234074 0-98.322963-44.088889-98.322963-98.228148s44.088889-98.228148 98.322963-98.228148 98.322963 44.088889 98.322963 98.228148-44.088889 98.228148-98.322963 98.228148z m0-153.884444c-30.72 0-55.656296 24.936296-55.656297 55.561481s24.936296 55.561481 55.656297 55.561482 55.656296-24.936296 55.656296-55.561482-24.936296-55.561481-55.656296-55.561481z"
          p-id="8498" fill="#499c54"></path>
    <path d="M464.023704 572.586667c-5.594074 0-11.093333-2.180741-15.265185-6.447408L264.343704 376.699259c-8.248889-8.438519-8.059259-21.997037 0.379259-30.151111 8.438519-8.248889 21.902222-8.059259 30.151111 0.379259l184.32 189.44c8.248889 8.438519 8.059259 21.997037-0.379259 30.151112-4.077037 4.077037-9.481481 6.068148-14.791111 6.068148zM559.502222 572.681481c-5.404444 0-10.714074-1.991111-14.885926-6.068148-8.438519-8.248889-8.628148-21.712593-0.379259-30.151111l184.794074-189.534815c8.248889-8.438519 21.712593-8.628148 30.151111-0.379259 8.438519 8.248889 8.628148 21.712593 0.379259 30.151111L574.767407 566.234074c-4.171852 4.266667-9.671111 6.447407-15.265185 6.447407z"
          p-id="8499" fill="#499c54"></path>
    <path d="M276.48 680.201481c-4.93037 0-9.955556-1.706667-13.937778-5.214814-8.912593-7.68-9.860741-21.238519-2.085926-30.056297l235.235556-270.885926c7.68-8.912593 21.238519-9.860741 30.056296-2.085925 8.912593 7.68 9.860741 21.238519 2.085926 30.056296L292.598519 672.900741c-4.266667 4.835556-10.145185 7.300741-16.118519 7.30074z"
          p-id="8500" fill="#499c54"></path>
    <path d="M747.425185 680.296296c-5.973333 0-11.851852-2.465185-16.118518-7.30074L495.597037 402.014815c-7.774815-8.912593-6.826667-22.376296 2.085926-30.056296 8.912593-7.774815 22.376296-6.826667 30.056296 2.085925l235.70963 270.885926c7.774815 8.912593 6.826667 22.376296-2.085926 30.056297-3.982222 3.508148-8.912593 5.30963-13.937778 5.309629z"
          p-id="8501" fill="#499c54"></path>
</svg>