<?xml version="1.0" standalone="no"?><!DOCTYPE svg PUBLIC "-//W3C//DTD SVG 1.1//EN"
        "http://www.w3.org/Graphics/SVG/1.1/DTD/svg11.dtd">
<svg t="1599202974704" class="icon" viewBox="0 0 1024 1024" version="1.1" xmlns="http://www.w3.org/2000/svg" p-id="5171"
     xmlns:xlink="http://www.w3.org/1999/xlink" width="25" height="25">
    <defs>
        <style type="text/css"></style>
    </defs>
    <path d="M101.333333 799.573333c57.984 35.114667 120.576 44.16 185.685334 26.709334 65.109333-17.493333 114.773333-56.533333 147.413333-115.968a32 32 0 1 0-56.064-30.848c-24.277333 44.202667-59.733333 72.106667-107.946667 84.992-48.213333 12.928-92.842667 6.485333-135.936-19.626667a32 32 0 1 0-33.152 54.741333zM922.666667 224.426667c-57.984-35.114667-120.576-44.16-185.685334-26.709334-65.109333 17.493333-114.773333 56.533333-147.413333 115.968a32 32 0 1 0 56.064 30.848c24.277333-44.202667 59.733333-72.106667 107.946667-84.992 48.213333-12.928 92.842667-6.485333 135.936 19.626667a32 32 0 1 0 33.152-54.741333z"
          fill="#BEC4C0" p-id="5172"></path>
    <path d="M325.546667 631.296l39.978666-124.714667a21.333333 21.333333 0 0 1 30.976-11.946666l188.330667 108.672a21.333333 21.333333 0 0 1 5.12 32.853333l-88.021333 96.938667a21.333333 21.333333 0 0 1-26.453334 4.138666L335.189333 656.213333a21.333333 21.333333 0 0 1-9.642666-24.96zM434.56 386.816l94.677333-93.141333a21.333333 21.333333 0 0 1 25.6-3.285334l127.616 73.685334a21.333333 21.333333 0 0 1 9.984 23.850666l-33.28 128.554667a21.333333 21.333333 0 0 1-31.317333 13.141333l-189.013333-109.141333a21.333333 21.333333 0 0 1-4.266667-33.706667z"
          fill="#BEC4C0" p-id="5173"></path>
    <path d="M472.192 538.282667l21.333333-36.949334a21.333333 21.333333 0 1 0-36.949333-21.333333l-21.333333 36.949333a21.333333 21.333333 0 1 0 36.949333 21.333334zM546.090667 580.949333l21.333333-36.949333a21.333333 21.333333 0 1 0-36.949333-21.333333l-21.333334 36.949333a21.333333 21.333333 0 1 0 36.949334 21.333333z"
          fill="#BEC4C0" p-id="5174"></path>
    <path d="M512 1024c282.752 0 512-229.248 512-512S794.752 0 512 0 0 229.248 0 512s229.248 512 512 512z m0-85.333333C276.352 938.666667 85.333333 747.648 85.333333 512S276.352 85.333333 512 85.333333s426.666667 191.018667 426.666667 426.666667-191.018667 426.666667-426.666667 426.666667z"
          fill="#BEC4C0" p-id="5175"></path>
</svg>