<?xml version="1.0" standalone="no"?><!DOCTYPE svg PUBLIC "-//W3C//DTD SVG 1.1//EN"
        "http://www.w3.org/Graphics/SVG/1.1/DTD/svg11.dtd">
<svg t="1599204880457" class="icon" viewBox="0 0 1024 1024" version="1.1" xmlns="http://www.w3.org/2000/svg"
     p-id="13487" xmlns:xlink="http://www.w3.org/1999/xlink" width="25" height="25">
    <defs>
        <style type="text/css"></style>
    </defs>
    <path d="M967.111111 170.666667v113.777777H56.888889V170.666667z" fill="#BEC4C0" p-id="13488"></path>
    <path d="M341.333333 227.555556m-170.666666 0a170.666667 170.666667 0 1 0 341.333333 0 170.666667 170.666667 0 1 0-341.333333 0Z"
          fill="#BEC4C0" p-id="13489"></path>
    <path d="M341.333333 398.222222C244.622222 398.222222 170.666667 324.266667 170.666667 227.555556s73.955556-170.666667 170.666666-170.666667 170.666667 73.955556 170.666667 170.666667-73.955556 170.666667-170.666667 170.666666z m0-227.555555c-34.133333 0-56.888889 22.755556-56.888889 56.888889s22.755556 56.888889 56.888889 56.888888 56.888889-22.755556 56.888889-56.888888-22.755556-56.888889-56.888889-56.888889zM967.111111 739.555556v113.777777H56.888889v-113.777777z"
          fill="#BEC4C0" p-id="13490"></path>
    <path d="M682.666667 796.444444m-170.666667 0a170.666667 170.666667 0 1 0 341.333333 0 170.666667 170.666667 0 1 0-341.333333 0Z"
          fill="#BEC4C0" p-id="13491"></path>
    <path d="M682.666667 967.111111c-96.711111 0-170.666667-73.955556-170.666667-170.666667s73.955556-170.666667 170.666667-170.666666 170.666667 73.955556 170.666666 170.666666-73.955556 170.666667-170.666666 170.666667z m0-227.555555c-34.133333 0-56.888889 22.755556-56.888889 56.888888s22.755556 56.888889 56.888889 56.888889 56.888889-22.755556 56.888889-56.888889-22.755556-56.888889-56.888889-56.888888z"
          fill="#BEC4C0" p-id="13492"></path>
</svg>