<?xml version="1.0" standalone="no"?><!DOCTYPE svg PUBLIC "-//W3C//DTD SVG 1.1//EN"
        "http://www.w3.org/Graphics/SVG/1.1/DTD/svg11.dtd">
<svg t="1599204643648" class="icon" viewBox="0 0 1024 1024" version="1.1" xmlns="http://www.w3.org/2000/svg"
     p-id="10545" xmlns:xlink="http://www.w3.org/1999/xlink" width="25" height="25">
    <defs>
        <style type="text/css"></style>
    </defs>
    <path d="M907.636364 395.636364H116.363636a23.272727 23.272727 0 0 0-23.272727 23.272727v418.909091a46.545455 46.545455 0 0 0 46.545455 46.545454h744.727272a46.545455 46.545455 0 0 0 46.545455-46.545454V418.909091a23.272727 23.272727 0 0 0-23.272727-23.272727zM376.087273 633.250909l-115.2 115.2a23.272727 23.272727 0 0 1-33.047273-33.047273L325.818182 616.727273l-97.978182-98.676364a23.272727 23.272727 0 0 1 33.047273-33.047273l115.2 115.2a23.272727 23.272727 0 0 1 0 33.047273zM605.090909 768h-139.636364a23.272727 23.272727 0 0 1 0-46.545455h139.636364a23.272727 23.272727 0 0 1 0 46.545455zM884.363636 139.636364H139.636364a46.545455 46.545455 0 0 0-46.545455 46.545454v139.636364a23.272727 23.272727 0 0 0 23.272727 23.272727h791.272728a23.272727 23.272727 0 0 0 23.272727-23.272727V186.181818a46.545455 46.545455 0 0 0-46.545455-46.545454zM221.090909 279.272727a34.909091 34.909091 0 1 1 34.909091-34.909091A34.909091 34.909091 0 0 1 221.090909 279.272727z m93.090909 0a34.909091 34.909091 0 1 1 34.909091-34.909091 34.909091 34.909091 0 0 1-34.909091 34.909091z m93.090909 0a34.909091 34.909091 0 1 1 34.909091-34.909091 34.909091 34.909091 0 0 1-34.909091 34.909091z"
          fill="#BEC4C0" p-id="10546"></path>
</svg>