<?xml version="1.0" standalone="no"?><!DOCTYPE svg PUBLIC "-//W3C//DTD SVG 1.1//EN"
        "http://www.w3.org/Graphics/SVG/1.1/DTD/svg11.dtd">
<svg t="1602077493554" class="icon" viewBox="0 0 1024 1024" version="1.1" xmlns="http://www.w3.org/2000/svg" p-id="6850"
     xmlns:xlink="http://www.w3.org/1999/xlink" width="25" height="25">
    <defs>
        <style type="text/css"></style>
    </defs>
    <path d="M704 896a314.88 314.88 0 0 1-248.96-108.16 32 32 0 1 1 49.92-39.68A256 256 0 0 0 704 832a256 256 0 0 0 199.04-83.84 32 32 0 1 1 49.92 39.68A314.88 314.88 0 0 1 704 896z"
          fill="#9AA7B0" p-id="6851"></path>
    <path d="M384 928H128a32 32 0 0 1-32-32V128a32 32 0 0 1 32-32h768a32 32 0 0 1 32 32v512a32 32 0 0 1-64 0V160h-704v704H384a32 32 0 0 1 0 64z"
          fill="#9AA7B0" p-id="6852"></path>
    <path d="M896 416H128a32 32 0 0 1 0-64h768a32 32 0 0 1 0 64zM896 672H128a32 32 0 0 1 0-64h768a32 32 0 0 1 0 64z"
          fill="#9AA7B0" p-id="6853"></path>
    <path d="M384 928a32 32 0 0 1-32-32V384a32 32 0 0 1 64 0v512a32 32 0 0 1-32 32zM640 672a32 32 0 0 1-32-32V384a32 32 0 0 1 64 0v256a32 32 0 0 1-32 32zM896 960a30.08 30.08 0 0 1-22.4-9.6l-64-64a31.36 31.36 0 0 1 44.8-44.8l64 64a30.72 30.72 0 0 1 0 44.8 30.08 30.08 0 0 1-22.4 9.6zM512 960a30.08 30.08 0 0 1-22.4-9.6 30.72 30.72 0 0 1 0-44.8l64-64a31.36 31.36 0 0 1 44.8 44.8l-64 64A30.08 30.08 0 0 1 512 960zM704 992a32 32 0 0 1-32-32v-64a32 32 0 0 1 64 0v64a32 32 0 0 1-32 32z"
          fill="#9AA7B0" p-id="6854"></path>
</svg>